<mxfile host="app.diagrams.net" modified="2022-03-09T07:01:56.748Z" agent="5.0 (Windows NT 10.0; Win64; x64) AppleWebKit/537.36 (KHTML, like Gecko) Chrome/96.0.4664.174 YaBrowser/22.1.4.837 Yowser/2.5 Safari/537.36" etag="yCWmz0hgPE76mdHP-cT_" version="17.0.0" type="github">
  <diagram id="vUAhwzTHQJSrHVnXRB-v" name="Страница 1">
    <mxGraphModel dx="1198" dy="789" grid="1" gridSize="10" guides="1" tooltips="1" connect="1" arrows="1" fold="1" page="1" pageScale="1" pageWidth="3300" pageHeight="2339" math="0" shadow="0">
      <root>
        <mxCell id="0" />
        <mxCell id="1" parent="0" />
      </root>
    </mxGraphModel>
  </diagram>
</mxfile>
